<svg width="440" height="480" viewBox="0 0 440 480" xmlns="http://www.w3.org/2000/svg">
      <defs>
        <filter id="gw2"><feGaussianBlur stdDeviation="2" result="b"/><feMerge><feMergeNode in="b"/><feMergeNode in="SourceGraphic"/></feMerge></filter>
      </defs>
      <style>
        @keyframes buildIn{from{opacity:0;transform:translateY(10px)}to{opacity:1;transform:translateY(0)}}
        @keyframes drawLine{from{stroke-dashoffset:400}to{stroke-dashoffset:0}}
        @keyframes flowDash{to{stroke-dashoffset:-20}}
        @keyframes labelPop{from{opacity:0;transform:scale(.85)}to{opacity:1;transform:scale(1)}}
        @keyframes scanMEP{0%{transform:translateY(0);opacity:0}5%{opacity:.3}93%{opacity:.15}100%{transform:translateY(400px);opacity:0}}

        .struct{animation:buildIn .5s .1s ease both;opacity:0}
        .mech{animation:buildIn .5s .6s ease both;opacity:0}
        .elec{animation:buildIn .5s 1.1s ease both;opacity:0}
        .plumb{animation:buildIn .5s 1.6s ease both;opacity:0}
        .fp{animation:buildIn .5s 2.1s ease both;opacity:0}
        .coord-badge{animation:labelPop .5s 2.7s ease both;opacity:0}
        .flow{stroke-dasharray:8 5;animation:flowDash .9s linear infinite}
        .scan2{animation:scanMEP 5s 1s linear infinite}
      </style>
      <defs><pattern id="pg3" width="20" height="20" patternUnits="userSpaceOnUse"><path d="M20 0L0 0 0 20" fill="none" stroke="rgba(104,125,156,.06)" stroke-width=".5"/></pattern></defs>
      <rect width="440" height="480" fill="url(#pg3)"/>

      <!-- Title -->
      <g class="struct">
        <text x="220" y="44" fill="rgba(138,148,166,.55)" font-family="monospace" font-size="8" text-anchor="middle" font-weight="bold" letter-spacing=".1em">MEP BIM SERVICES — REVIT MODEL</text>
        <rect x="152" y="52" width="136" height="14" rx="3" fill="rgba(222,170,87,.12)" stroke="rgba(222,170,87,.3)" stroke-width=".8"/>
        <text x="220" y="62" fill="rgba(222,170,87,.85)" font-family="monospace" font-size="7" text-anchor="middle" font-weight="bold">LOD 300 · REVIT MEP · COORDINATION-READY</text>
      </g>

      <!-- ROW 1: MECHANICAL / HVAC (gold) -->
      <g class="mech">
        <rect x="30" y="80" width="380" height="72" rx="4" fill="rgba(222,170,87,.06)" stroke="rgba(222,170,87,.25)" stroke-width="1"/>
        <rect x="30" y="80" width="90" height="72" fill="rgba(222,170,87,.12)" rx="4"/>
        <text x="75" y="111" fill="rgba(222,170,87,.9)" font-family="monospace" font-size="8" text-anchor="middle" font-weight="bold">MECHANICAL</text>
        <text x="75" y="123" fill="rgba(222,170,87,.6)" font-family="monospace" font-size="7" text-anchor="middle">HVAC</text>
        <rect x="136" y="103" width="240" height="16" fill="rgba(222,170,87,.18)" stroke="rgba(222,170,87,.8)" stroke-width="1.2" rx="1"/>
        <rect x="168" y="88" width="14" height="30" fill="rgba(222,170,87,.12)" stroke="rgba(222,170,87,.6)" stroke-width="1" rx="1"/>
        <rect x="240" y="86" width="14" height="32" fill="rgba(222,170,87,.12)" stroke="rgba(222,170,87,.6)" stroke-width="1" rx="1"/>
        <rect x="312" y="88" width="14" height="30" fill="rgba(222,170,87,.12)" stroke="rgba(222,170,87,.6)" stroke-width="1" rx="1"/>
        <line x1="148" y1="111" x2="166" y2="111" stroke="rgba(222,170,87,.5)" stroke-width=".8" class="flow"/>
        <line x1="185" y1="111" x2="238" y2="111" stroke="rgba(222,170,87,.5)" stroke-width=".8" class="flow"/>
        <line x1="257" y1="111" x2="310" y2="111" stroke="rgba(222,170,87,.5)" stroke-width=".8" class="flow"/>
        <rect x="120" y="97" width="18" height="28" rx="2" fill="rgba(222,170,87,.2)" stroke="rgba(222,170,87,.7)" stroke-width="1"/>
        <text x="129" y="114" fill="rgba(222,170,87,.9)" font-family="monospace" font-size="5.5" text-anchor="middle" font-weight="bold">AHU</text>
        <circle cx="175" cy="89" r="4" fill="none" stroke="rgba(222,170,87,.5)" stroke-width=".8"/>
        <circle cx="247" cy="87" r="4" fill="none" stroke="rgba(222,170,87,.5)" stroke-width=".8"/>
        <circle cx="319" cy="89" r="4" fill="none" stroke="rgba(222,170,87,.5)" stroke-width=".8"/>
      </g>

      <!-- ROW 2: ELECTRICAL (blue) -->
      <g class="elec">
        <rect x="30" y="162" width="380" height="72" rx="4" fill="rgba(104,125,156,.06)" stroke="rgba(104,125,156,.25)" stroke-width="1"/>
        <rect x="30" y="162" width="90" height="72" fill="rgba(104,125,156,.1)" rx="4"/>
        <text x="75" y="193" fill="rgba(150,180,220,.9)" font-family="monospace" font-size="8" text-anchor="middle" font-weight="bold">ELECTRICAL</text>
        <text x="75" y="205" fill="rgba(104,125,156,.6)" font-family="monospace" font-size="7" text-anchor="middle">CONDUIT</text>
        <rect x="136" y="181" width="240" height="10" fill="rgba(104,125,156,.12)" stroke="rgba(104,125,156,.65)" stroke-width="1" rx="1"/>
        <line x1="175" y1="181" x2="175" y2="191" stroke="rgba(104,125,156,.5)" stroke-width="1"/>
        <line x1="230" y1="181" x2="230" y2="191" stroke="rgba(104,125,156,.5)" stroke-width="1"/>
        <line x1="285" y1="181" x2="285" y2="191" stroke="rgba(104,125,156,.5)" stroke-width="1"/>
        <line x1="340" y1="181" x2="340" y2="191" stroke="rgba(104,125,156,.5)" stroke-width="1"/>
        <line x1="136" y1="200" x2="376" y2="200" stroke="rgba(104,125,156,.9)" stroke-width="3" stroke-linecap="round"/>
        <line x1="190" y1="200" x2="190" y2="218" stroke="rgba(104,125,156,.6)" stroke-width="1.5" stroke-linecap="round"/>
        <line x1="310" y1="200" x2="310" y2="218" stroke="rgba(104,125,156,.6)" stroke-width="1.5" stroke-linecap="round"/>
        <rect x="360" y="177" width="18" height="22" rx="2" fill="rgba(104,125,156,.15)" stroke="rgba(104,125,156,.7)" stroke-width="1"/>
        <text x="369" y="191" fill="rgba(104,125,156,.9)" font-family="monospace" font-size="5" text-anchor="middle" font-weight="bold">DBT</text>
      </g>

      <!-- ROW 3: PLUMBING (teal) -->
      <g class="plumb">
        <rect x="30" y="244" width="380" height="72" rx="4" fill="rgba(80,180,160,.05)" stroke="rgba(80,180,160,.22)" stroke-width="1"/>
        <rect x="30" y="244" width="90" height="72" fill="rgba(80,180,160,.08)" rx="4"/>
        <text x="75" y="275" fill="rgba(80,200,180,.9)" font-family="monospace" font-size="8" text-anchor="middle" font-weight="bold">PLUMBING</text>
        <text x="75" y="287" fill="rgba(80,180,160,.55)" font-family="monospace" font-size="7" text-anchor="middle">HW / CW</text>
        <line x1="136" y1="268" x2="376" y2="268" stroke="rgba(80,180,160,.9)" stroke-width="3.5" stroke-linecap="round"/>
        <line x1="136" y1="268" x2="376" y2="268" stroke="rgba(80,180,160,.2)" stroke-width="8"/>
        <line x1="136" y1="280" x2="376" y2="280" stroke="rgba(80,140,200,.8)" stroke-width="2.5" stroke-linecap="round"/>
        <circle cx="190" cy="268" r="5" fill="none" stroke="rgba(80,180,160,.8)" stroke-width="1.2"/>
        <circle cx="310" cy="280" r="5" fill="none" stroke="rgba(80,140,200,.7)" stroke-width="1.2"/>
        <line x1="230" y1="268" x2="230" y2="296" stroke="rgba(80,180,160,.5)" stroke-width="1.5"/>
        <line x1="280" y1="280" x2="280" y2="299" stroke="rgba(80,140,200,.5)" stroke-width="1.5"/>
        <rect x="138" y="258" width="20" height="9" rx="1" fill="rgba(80,180,160,.2)"/>
        <text x="148" y="265" fill="rgba(80,200,180,.8)" font-family="monospace" font-size="6" text-anchor="middle">HW</text>
        <rect x="138" y="274" width="20" height="9" rx="1" fill="rgba(80,140,200,.2)"/>
        <text x="148" y="281" fill="rgba(100,160,220,.8)" font-family="monospace" font-size="6" text-anchor="middle">CW</text>
      </g>

      <!-- ROW 4: FIRE PROTECTION (red) -->
      <g class="fp">
        <rect x="30" y="326" width="380" height="72" rx="4" fill="rgba(220,80,80,.04)" stroke="rgba(220,80,80,.2)" stroke-width="1"/>
        <rect x="30" y="326" width="90" height="72" fill="rgba(220,80,80,.07)" rx="4"/>
        <text x="75" y="357" fill="rgba(240,120,120,.9)" font-family="monospace" font-size="8" text-anchor="middle" font-weight="bold">FIRE</text>
        <text x="75" y="369" fill="rgba(220,80,80,.55)" font-family="monospace" font-size="7" text-anchor="middle">PROTECTION</text>
        <line x1="136" y1="355" x2="376" y2="355" stroke="rgba(220,80,80,.75)" stroke-width="2.5" stroke-linecap="round"/>
        <line x1="170" y1="355" x2="170" y2="371" stroke="rgba(220,80,80,.6)" stroke-width="1.5"/>
        <circle cx="170" cy="375" r="5" fill="rgba(220,80,80,.6)" stroke="rgba(220,80,80,.3)" stroke-width=".8"/>
        <line x1="220" y1="355" x2="220" y2="373" stroke="rgba(220,80,80,.6)" stroke-width="1.5"/>
        <circle cx="220" cy="377" r="5" fill="rgba(220,80,80,.6)" stroke="rgba(220,80,80,.3)" stroke-width=".8"/>
        <line x1="280" y1="355" x2="280" y2="371" stroke="rgba(220,80,80,.6)" stroke-width="1.5"/>
        <circle cx="280" cy="375" r="5" fill="rgba(220,80,80,.6)" stroke="rgba(220,80,80,.3)" stroke-width=".8"/>
        <line x1="340" y1="355" x2="340" y2="373" stroke="rgba(220,80,80,.6)" stroke-width="1.5"/>
        <circle cx="340" cy="377" r="5" fill="rgba(220,80,80,.6)" stroke="rgba(220,80,80,.3)" stroke-width=".8"/>
        <rect x="358" y="340" width="18" height="30" rx="2" fill="rgba(220,80,80,.1)" stroke="rgba(220,80,80,.6)" stroke-width="1"/>
        <text x="367" y="358" fill="rgba(240,120,120,.8)" font-family="monospace" font-size="5" text-anchor="middle" font-weight="bold">FPS</text>
      </g>

      <!-- FILE FORMAT BADGES -->
      <g class="coord-badge">
        <rect x="136" y="415" width="36" height="14" rx="2" fill="rgba(104,125,156,.15)" stroke="rgba(104,125,156,.3)" stroke-width=".8"/>
        <text x="154" y="425" fill="rgba(150,180,220,.8)" font-family="monospace" font-size="7" text-anchor="middle" font-weight="bold">.RVT</text>
        <rect x="178" y="415" width="36" height="14" rx="2" fill="rgba(104,125,156,.15)" stroke="rgba(104,125,156,.3)" stroke-width=".8"/>
        <text x="196" y="425" fill="rgba(150,180,220,.8)" font-family="monospace" font-size="7" text-anchor="middle" font-weight="bold">.IFC</text>
        <rect x="220" y="415" width="36" height="14" rx="2" fill="rgba(104,125,156,.15)" stroke="rgba(104,125,156,.3)" stroke-width=".8"/>
        <text x="238" y="425" fill="rgba(150,180,220,.8)" font-family="monospace" font-size="7" text-anchor="middle" font-weight="bold">NWC</text>
        <rect x="262" y="415" width="44" height="14" rx="2" fill="rgba(222,170,87,.12)" stroke="rgba(222,170,87,.3)" stroke-width=".8"/>
        <text x="284" y="425" fill="rgba(222,170,87,.8)" font-family="monospace" font-size="7" text-anchor="middle" font-weight="bold">LOD300</text>
        <text x="220" y="450" fill="rgba(138,148,166,.35)" font-family="monospace" font-size="7" text-anchor="middle" letter-spacing=".06em">EAGLE BIM · MEP BIM SERVICES · USA</text>
      </g>

      <rect x="0" y="50" width="440" height="1.5" fill="rgba(104,125,156,.15)" class="scan2"/>
    </svg>