<svg viewBox="0 0 460 320" xmlns="http://www.w3.org/2000/svg" style="width:100%;max-width:460px;border-radius:8px;border:1px solid rgba(222,170,87,0.2)">
        <rect width="460" height="320" fill="#243044"/>
        <g opacity="0.04" stroke="white" stroke-width="0.5"><line x1="0" y1="46" x2="460" y2="46"/><line x1="0" y1="92" x2="460" y2="92"/><line x1="0" y1="138" x2="460" y2="138"/><line x1="0" y1="184" x2="460" y2="184"/><line x1="0" y1="230" x2="460" y2="230"/><line x1="0" y1="276" x2="460" y2="276"/><line x1="76" y1="0" x2="76" y2="320"/><line x1="152" y1="0" x2="152" y2="320"/><line x1="230" y1="0" x2="230" y2="320"/><line x1="308" y1="0" x2="308" y2="320"/><line x1="384" y1="0" x2="384" y2="320"/></g>
        <rect x="0" y="0" width="460" height="26" fill="rgba(36,48,68,0.95)"/>
        <text x="16" y="17" font-family="sans-serif" font-size="7.5" fill="rgba(222,170,87,0.7)" font-weight="700" letter-spacing="1">EAGLE BIM · BIM SERVICES · REVIT-NATIVE · LOD 300</text>
        <rect x="0" y="26" width="460" height="2" fill="rgba(222,170,87,0.3)"/>
        <!-- Building -->
        <polygon points="230,50 315,88 315,178 230,216 145,178 145,88" fill="rgba(26,38,56,0.85)" stroke="rgba(104,125,156,0.35)" stroke-width="1"/>
        <polygon points="230,50 315,88 230,126 145,88" fill="rgba(104,125,156,0.25)" stroke="#687d9c" stroke-width="1.2"/>
        <polygon points="145,88 145,178 230,216 230,126" fill="rgba(84,108,148,0.2)" stroke="rgba(104,125,156,0.3)" stroke-width="0.8"/>
        <polygon points="315,88 315,178 230,216 230,126" fill="rgba(64,88,128,0.18)" stroke="rgba(104,125,156,0.25)" stroke-width="0.8"/>
        <g fill="rgba(222,170,87,0.15)" stroke="rgba(222,170,87,0.3)" stroke-width="0.7"><rect x="156" y="100" width="20" height="22"/><rect x="183" y="100" width="20" height="22"/><rect x="156" y="132" width="20" height="22"/><rect x="183" y="132" width="20" height="22"/><rect x="156" y="163" width="20" height="18"/></g>
        <g fill="rgba(104,125,156,0.18)" stroke="rgba(104,125,156,0.3)" stroke-width="0.7"><rect x="247" y="100" width="20" height="22"/><rect x="274" y="100" width="20" height="22"/><rect x="247" y="132" width="20" height="22"/><rect x="274" y="132" width="20" height="22"/><rect x="274" y="163" width="20" height="18"/></g>
        <line x1="145" y1="88" x2="145" y2="188" stroke="#687d9c" stroke-width="2.5" opacity="0.7"/>
        <line x1="315" y1="88" x2="315" y2="188" stroke="#687d9c" stroke-width="2.5" opacity="0.7"/>
        <path d="M 75 165 Q 145 158 200 165 Q 250 172 315 165 Q 355 160 410 164" stroke="#e74c3c" stroke-width="2" fill="none" opacity="0.7" stroke-dasharray="5,2"/>
        <path d="M 75 177 Q 145 170 200 177 Q 250 184 315 177 Q 355 172 410 176" stroke="#3498db" stroke-width="1.8" fill="none" opacity="0.6" stroke-dasharray="7,2"/>
        <circle cx="268" cy="169" r="8" fill="rgba(231,76,60,0.15)" stroke="#e74c3c" stroke-width="1.5"/>
        <circle cx="268" cy="169" r="3" fill="#e74c3c"/>
        <rect x="278" y="161" width="46" height="12" rx="2" fill="rgba(231,76,60,0.85)"/>
        <text x="301" y="170" font-family="sans-serif" font-size="6.5" fill="white" text-anchor="middle" font-weight="700">RESOLVED</text>
        <!-- Stats -->
        <rect x="16" y="238" width="124" height="48" rx="3" fill="rgba(231,76,60,0.1)" stroke="rgba(231,76,60,0.3)" stroke-width="0.8"/>
        <text x="78" y="257" font-family="'DM Sans',sans-serif" font-size="20" fill="#e74c3c" text-anchor="middle" font-weight="800">3,247</text><text x="78" y="272" font-family="sans-serif" font-size="6.5" fill="rgba(255,255,255,0.4)" text-anchor="middle">Clashes Detected</text><text x="78" y="281" font-family="sans-serif" font-size="6" fill="rgba(231,76,60,0.6)" text-anchor="middle">Pre-Construction</text>
        <rect x="152" y="238" width="124" height="48" rx="3" fill="rgba(46,204,113,0.1)" stroke="rgba(46,204,113,0.3)" stroke-width="0.8"/>
        <text x="214" y="257" font-family="'DM Sans',sans-serif" font-size="20" fill="#2ecc71" text-anchor="middle" font-weight="800">98.4%</text><text x="214" y="272" font-family="sans-serif" font-size="6.5" fill="rgba(255,255,255,0.4)" text-anchor="middle">Resolved Pre-Field</text>
        <rect x="288" y="238" width="156" height="48" rx="3" fill="rgba(222,170,87,0.08)" stroke="rgba(222,170,87,0.3)" stroke-width="0.8"/>
        <text x="366" y="254" font-family="sans-serif" font-size="7" fill="rgba(222,170,87,0.55)" text-anchor="middle" font-weight="600">DISCIPLINES</text><text x="366" y="268" font-family="'DM Sans',sans-serif" font-size="11" fill="rgba(255,255,255,0.7)" text-anchor="middle" font-weight="700">STR · MEP · ARCH</text><text x="366" y="280" font-family="sans-serif" font-size="6" fill="rgba(255,255,255,0.3)" text-anchor="middle">Eagle BIM · Navisworks</text>
        <rect x="16" y="300" width="428" height="14" rx="3" fill="rgba(222,170,87,0.07)"/>
        <text x="230" y="310" font-family="sans-serif" font-size="6.5" fill="rgba(222,170,87,0.5)" text-anchor="middle" font-weight="600" letter-spacing="0.8">REVIT-NATIVE · LOD 300 · 48-HOUR SAMPLE · 22 US STATES</text>
      </svg>